<svg xmlns="http://www.w3.org/2000/svg" viewBox="0 0 288 30.85"><path d="M57.13,7.62a9.72,9.72,0,0,0-7.32-3.1,9.86,9.86,0,0,0-7.37,3.1,10.49,10.49,0,0,0-3,7.54,10.44,10.44,0,0,0,3,7.49,9.86,9.86,0,0,0,7.37,3.1,9.72,9.72,0,0,0,7.32-3.1,10.36,10.36,0,0,0,3-7.49,10.41,10.41,0,0,0-3-7.54ZM60.78,26a15.16,15.16,0,0,1-11,4.31,15.14,15.14,0,0,1-11-4.31,14.54,14.54,0,0,1-4.44-10.8A14.46,14.46,0,0,1,38.84,4.35,15.05,15.05,0,0,1,49.81,0a15.07,15.07,0,0,1,11,4.35,14.48,14.48,0,0,1,4.43,10.81A14.57,14.57,0,0,1,60.78,26Z" style="fill:#fff"/><path d="M80.56,29.22V1.47a.76.76,0,0,1,.76-.76h3.42a.76.76,0,0,1,.76.76V25.29H98.1a.75.75,0,0,1,.75.76v3.17a.75.75,0,0,1-.75.76H81.32A.76.76,0,0,1,80.56,29.22Z" style="fill:#fff"/><path d="M203.39.71h3.82a.56.56,0,0,1,.56.56V29.42a.56.56,0,0,1-.56.56h-3.82a.56.56,0,0,1-.56-.56V1.27A.56.56,0,0,1,203.39.71Z" style="fill:#fff"/><path d="M240.11,5.23V29.38a.6.6,0,0,1-.6.6h-3.74a.6.6,0,0,1-.6-.6V5.23h-8.28a.6.6,0,0,1-.6-.6V1.31a.6.6,0,0,1,.6-.6h21.49a.6.6,0,0,1,.6.6V4.63a.6.6,0,0,1-.6.6Z" style="fill:#fff"/><path d="M276.76,30h-3.62a.7.7,0,0,1-.7-.71V18.42L262,1.39a.45.45,0,0,1,.38-.68h4.21a.71.71,0,0,1,.6.34L275,14l7.79-13a.72.72,0,0,1,.61-.34h4.21a.44.44,0,0,1,.37.68l-10.47,17V29.27A.7.7,0,0,1,276.76,30Z" style="fill:#fff"/><path d="M183.63,29.38l-7.23-10q6.33-1.87,6.32-9.13,0-5-2.89-7.24c-1.92-1.51-5.12-2.26-9.58-2.26H160.3a.94.94,0,0,0-.94.94V29.32A.66.66,0,0,0,160,30h3.62a.66.66,0,0,0,.66-.66V20.14h0V15.66h0V5.19h6.28q4,0,5.53,1.09c1,.7,1.55,2,1.55,3.93a5.22,5.22,0,0,1-1.51,4.15c-.91.78-2.54,1.2-4.9,1.28a.53.53,0,0,0-.51.52V20l0,.12,6.63,9.32a1.21,1.21,0,0,0,1,.52h4.91A.38.38,0,0,0,183.63,29.38Z" style="fill:#7fc346"/><path d="M19.76,3.26Q16.7.71,10.05.71H.9a.9.9,0,0,0-.9.9V29.08a.9.9,0,0,0,.9.9H4a.9.9,0,0,0,.9-.9V5.19h5q4,0,5.91,1.26t1.88,4.31a6.41,6.41,0,0,1-1.51,4.6c-.73.79-2.41,1.27-4.36,1.46a.51.51,0,0,0-.47.51v3.44a.53.53,0,0,0,.56.52c3.22-.27,6.07-1.06,7.71-2.37,2.09-1.64,3.14-4.24,3.14-7.78S21.8,5,19.76,3.26Z" style="fill:#fff"/><path d="M145.86,29.55,129.16.64a.39.39,0,0,0-.69,0l-16.7,29a.43.43,0,0,0,.38.63h4.2a.7.7,0,0,0,.62-.37l11.84-21,9.64,16.68h-9.76l2.83-5.25a.47.47,0,0,0,0-.46l-2.37-4a.18.18,0,0,0-.33,0l-7.5,13.72a.49.49,0,0,0,.44.71h23.67A.48.48,0,0,0,145.86,29.55Z" style="fill:#7fc346"/></svg>